<svg width="41" height="35" viewBox="0 0 41 35" fill="none" xmlns="http://www.w3.org/2000/svg">
<path d="M9.51724 10.0217H34.5L33 21.5C32.5381 23.0122 31.0162 24.25 29 24.25H15.5C13.5285 24.25 12.0045 23.2272 11.5 21.7589L9.51724 10.0217ZM9.51724 10.0217L7.88793 5H3" stroke="white" stroke-width="1.5" stroke-linecap="square"/>
<path d="M14.75 30.5C15.7165 30.5 16.5 29.7165 16.5 28.75C16.5 27.7835 15.7165 27 14.75 27C13.7835 27 13 27.7835 13 28.75C13 29.7165 13.7835 30.5 14.75 30.5Z" fill="white"/>
<path d="M30.5 30.5C31.4665 30.5 32.25 29.7165 32.25 28.75C32.25 27.7835 31.4665 27 30.5 27C29.5335 27 28.75 27.7835 28.75 28.75C28.75 29.7165 29.5335 30.5 30.5 30.5Z" fill="white"/>
</svg>
