<svg xmlns="http://www.w3.org/2000/svg" viewBox="0 0 1100.53 223.38"><defs><style>.cls-1,.cls-2{fill:#fff;}.cls-2{font-size:144.08px;font-family:IvyMode-Regular, IvyMode;letter-spacing:0.2em;}.cls-3{letter-spacing:0.19em;}.cls-4{letter-spacing:0.2em;}</style></defs><g id="Layer_2" data-name="Layer 2"><g id="Layer_1-2" data-name="Layer 1"><path class="cls-1" d="M1086.47,2a12.07,12.07,0,0,1,12.06,12.06V209.32a12.07,12.07,0,0,1-12.06,12.06H14.06A12.07,12.07,0,0,1,2,209.32V14.06A12.07,12.07,0,0,1,14.06,2H1086.47m0-2H14.06A14.07,14.07,0,0,0,0,14.06V209.32a14.07,14.07,0,0,0,14.06,14.06H1086.47a14.06,14.06,0,0,0,14.06-14.06V14.06A14.06,14.06,0,0,0,1086.47,0Z"/><text class="cls-2" transform="translate(142.88 167.78)">SEAS<tspan class="cls-3" x="437.26" y="0">O</tspan><tspan class="cls-4" x="584.94" y="0">NED</tspan></text><path class="cls-1" d="M70.46,150.54l6.27-33.32,7.37,33.1a.94.94,0,0,1-.9,1.14l-11.81.19A.94.94,0,0,1,70.46,150.54Z"/><path class="cls-1" d="M44.62,128.11l32.11-10.89L51.51,139.88a.93.93,0,0,1-1.43-.22l-6-10.2A.93.93,0,0,1,44.62,128.11Z"/><path class="cls-1" d="M51.72,94.32l25,22.9L44.72,106a.93.93,0,0,1-.49-1.36l6.06-10.14A.93.93,0,0,1,51.72,94.32Z"/><path class="cls-1" d="M83.68,84l-7,33.19L70,84A.93.93,0,0,1,71,82.86l11.82,0A.94.94,0,0,1,83.68,84Z"/><path class="cls-1" d="M108.87,106.42l-32.14,10.8L102,94.62a.93.93,0,0,1,1.43.23l5.93,10.21A.94.94,0,0,1,108.87,106.42Z"/><path class="cls-1" d="M102.16,139.65,76.73,117.22l32.21,10.6a.92.92,0,0,1,.52,1.35l-5.88,10.25A.92.92,0,0,1,102.16,139.65Z"/></g></g></svg>